<svg width="100" height="110" viewBox="0 0 100 110" fill="none" xmlns="http://www.w3.org/2000/svg">
<g filter="url(#filter0_d_146_373)">
<path d="M46.6337 98.6186C58.1557 109.794 76.8365 109.794 88.3585 98.6186C99.8805 87.4433 99.8805 69.3245 88.3585 58.1492L50.4958 21.4258C45.609 16.686 37.8407 16.686 32.9539 21.4258L9.32361 44.345C4.22104 49.2941 4.22104 57.4821 9.3236 62.4312L46.6337 98.6186Z" fill="#FFC9C9"/>
<path d="M46.6337 8.38149C58.1557 -2.79381 76.8365 -2.79381 88.3585 8.38149C99.8805 19.5568 99.8805 37.6756 88.3585 48.8509L50.4958 85.5743C45.609 90.314 37.8407 90.314 32.9539 85.5743L9.32361 62.655C4.22104 57.706 4.22104 49.5179 9.3236 44.5689L46.6337 8.38149Z" fill="#FFC9C9"/>
<g filter="url(#filter1_d_146_373)">
<path d="M72.9169 75.4599C73.3915 76.1508 73.5497 76.9953 73.3915 77.9933C73.2333 78.9145 72.64 79.8741 71.6117 80.872C70.7415 81.7165 69.812 82.1579 68.8232 82.1963C68.0477 82.1963 67.4042 82.0426 66.8927 81.7351C66.6662 81.599 66.4883 81.3998 66.3237 81.1932C64.8793 79.3805 62.5879 76.9512 59.4494 73.9054C57.4718 71.9862 54.3076 69.1458 49.9569 65.3842C45.8039 61.8912 42.2244 58.6862 39.2185 55.769C37.5968 54.1953 36.0147 52.5064 34.4722 50.7024C33.9185 50.165 33.6416 49.2822 33.6416 48.0539C33.6812 46.7872 34.1953 45.5205 35.1841 44.2539C38.5461 40.2236 42.9561 35.5599 48.4143 30.263L50.3128 28.4205C51.7367 27.0387 53.3781 25.9448 55.2371 25.1387C57.1356 24.2943 58.7177 24.4862 59.9833 25.7145C60.8139 26.5205 61.2688 27.3458 61.3479 28.1902C61.427 29.0347 60.9326 29.9751 59.8647 31.0115C59.3505 31.5104 58.7177 32.0478 57.9662 32.6236C57.2147 33.1993 56.6807 33.6024 56.3643 33.8327C54.624 35.0609 53.3386 36.0781 52.508 36.8842C49.0925 40.1987 46.4771 43.0772 44.6617 45.5197C43.6653 46.8602 43.9194 48.6998 45.1371 49.8429C46.3139 50.9477 47.7821 52.3089 49.5416 53.9266L50.8815 55.187C52.2895 56.5113 54.4976 56.5008 55.836 55.1063C56.8829 54.0155 57.8303 52.9697 58.6781 51.969C60.102 50.2034 60.9128 49.1862 61.1106 48.9175C62.93 46.6912 64.1759 45.2519 64.8483 44.5993C65.7975 43.6781 66.8061 43.1216 67.874 42.9296C68.9419 42.6609 69.9109 42.9488 70.7811 43.7933C72.7587 45.7125 72.3632 48.0155 69.5945 50.7024C68.9221 51.3549 68.3486 51.9498 67.874 52.4872C67.3994 53.0246 67.0038 53.4852 66.6874 53.869C65.4218 55.4044 64.3736 56.5751 63.543 57.3811C62.7606 58.1404 62.0404 58.8607 61.3824 59.5419C60.057 60.9138 60.1548 63.0841 61.5772 64.3551C62.3216 65.0203 63.0956 65.6896 63.899 66.363C64.4132 66.8619 65.224 67.6104 66.3315 68.6084C67.4785 69.568 68.4871 70.47 69.3572 71.3145C70.1087 72.0438 70.7811 72.7347 71.3744 73.3872C71.9676 74.0397 72.4818 74.7306 72.9169 75.4599Z" fill="white"/>
</g>
<path d="M41.3063 49.3035L41.2021 49.4037C41.0814 49.2925 40.9744 49.2215 40.8811 49.1909C40.7913 49.1637 40.7013 49.1734 40.6111 49.22C40.5209 49.2666 40.4115 49.3517 40.283 49.4753L38.714 50.9842C38.4708 51.2181 38.2433 51.4068 38.0316 51.5502C37.8199 51.6937 37.6083 51.7901 37.397 51.8395C37.1649 51.8956 36.921 51.8862 36.6652 51.8113C36.4129 51.733 36.1799 51.5893 35.9662 51.3803C35.8008 51.2185 35.6631 51.0434 35.5532 50.8549C35.4432 50.6732 35.3852 50.4749 35.3792 50.2601C35.3766 50.0687 35.3998 49.8926 35.4489 49.7317C35.5015 49.5742 35.5957 49.4101 35.7314 49.2395C35.8671 49.0689 36.0531 48.8699 36.2893 48.6427L37.9261 47.0687C38.0546 46.9451 38.1381 46.8447 38.1765 46.7677C38.2184 46.6873 38.2187 46.6067 38.1775 46.526C38.1433 46.4453 38.0693 46.346 37.9556 46.228L38.0598 46.1277C38.1287 46.2019 38.22 46.2979 38.3337 46.4159C38.4474 46.5339 38.5715 46.6586 38.7059 46.7901C38.8265 46.9081 38.9472 47.0227 39.0678 47.134C39.1919 47.2486 39.2953 47.3431 39.3781 47.4173L39.2738 47.5175C39.1532 47.4062 39.0497 47.3319 38.9633 47.2947C38.8839 47.2574 38.8025 47.2587 38.7193 47.2986C38.6396 47.3352 38.5354 47.4153 38.4068 47.539L36.6815 49.1982C36.5043 49.3686 36.3444 49.5391 36.2017 49.7097C36.0626 49.877 35.9581 50.0443 35.8881 50.2119C35.8251 50.3794 35.814 50.5506 35.8548 50.7253C35.8991 50.8967 36.0125 51.0717 36.1952 51.2504C36.4571 51.5066 36.7161 51.6487 36.972 51.6766C37.2349 51.7046 37.4965 51.647 37.7566 51.5037C38.0202 51.3639 38.2806 51.1703 38.5378 50.923L40.1641 49.359C40.2926 49.2354 40.3762 49.125 40.4146 49.0278C40.4566 48.934 40.4587 48.8383 40.421 48.7408C40.3834 48.6433 40.3077 48.5356 40.194 48.4176L40.2983 48.3174C40.3568 48.3814 40.4343 48.464 40.5308 48.5651C40.6307 48.6696 40.7238 48.7639 40.8099 48.8482C40.8995 48.9359 40.9891 49.0202 41.0788 49.1011C41.1719 49.1854 41.2477 49.2529 41.3063 49.3035ZM44.9077 52.8263L44.8034 52.9266C44.6828 52.8153 44.5758 52.7444 44.4825 52.7138C44.3926 52.6865 44.3026 52.6962 44.2124 52.7428C44.1222 52.7894 44.0129 52.8745 43.8843 52.9982L40.7725 55.9908C40.7518 55.9706 40.7311 55.9503 40.7104 55.9301C40.6932 55.9133 40.6742 55.8947 40.6536 55.8745L41.8652 50.4973L39.113 53.144C38.9879 53.2643 38.8993 53.3697 38.847 53.4601C38.8016 53.5505 38.796 53.6428 38.8302 53.737C38.8713 53.8311 38.9556 53.9473 39.0831 54.0854L38.9788 54.1857C38.9238 54.1183 38.8462 54.0358 38.7463 53.938C38.6498 53.8369 38.5568 53.7425 38.4672 53.6549C38.381 53.5706 38.2914 53.4863 38.1983 53.402C38.1122 53.3177 38.0363 53.2502 37.9708 53.1996L38.075 53.0993C38.1991 53.2073 38.3044 53.2765 38.3908 53.3071C38.4841 53.3377 38.5758 53.3297 38.666 53.2831C38.7597 53.2332 38.869 53.148 38.9941 53.0277L41.5274 50.5915C41.656 50.4679 41.7394 50.3676 41.7778 50.2905C41.8197 50.2101 41.8201 50.1296 41.7789 50.0488C41.7446 49.9681 41.6706 49.8688 41.5569 49.7508L41.6612 49.6506C41.7163 49.7112 41.7852 49.7854 41.8679 49.873C41.954 49.964 42.0401 50.0516 42.1263 50.1359C42.2021 50.2101 42.2762 50.2792 42.3486 50.3433C42.421 50.4074 42.4866 50.4647 42.5452 50.5153L41.5345 55.0273L43.7654 52.8819C43.894 52.7582 43.9809 52.6512 44.0263 52.5608C44.0751 52.4737 44.0807 52.3814 44.0431 52.2839C44.0089 52.1898 43.9263 52.0753 43.7954 51.9405L43.8996 51.8402C43.9582 51.9043 44.0357 51.9868 44.1321 52.0879C44.2321 52.1924 44.3251 52.2868 44.4113 52.3711C44.5009 52.4587 44.5905 52.543 44.6801 52.624C44.7732 52.7083 44.8491 52.7757 44.9077 52.8263ZM46.6294 54.5106L46.5252 54.6108C46.4045 54.4995 46.301 54.4252 46.2147 54.388C46.1352 54.3507 46.0539 54.352 45.9707 54.392C45.8909 54.4285 45.7867 54.5086 45.6582 54.6323L43.0728 57.1186C42.9477 57.2389 42.8642 57.3393 42.8223 57.4196C42.7805 57.5 42.7784 57.5789 42.8161 57.6562C42.8573 57.737 42.933 57.838 43.0433 57.9593L42.939 58.0596C42.8667 57.9753 42.7702 57.8742 42.6496 57.7562C42.5359 57.6383 42.4187 57.5203 42.2981 57.4023C42.1637 57.2708 42.0362 57.1494 41.9155 57.0382C41.7983 56.9235 41.7001 56.8342 41.6208 56.7701L41.725 56.6698C41.8491 56.7777 41.9509 56.8503 42.0304 56.8876C42.1133 56.9282 42.1963 56.9286 42.2795 56.8887C42.3628 56.8487 42.4669 56.7686 42.592 56.6483L45.1774 54.162C45.306 54.0384 45.3895 53.938 45.4278 53.861C45.4697 53.7806 45.4701 53.7 45.4289 53.6193C45.3946 53.5386 45.3206 53.4393 45.2069 53.3213L45.3112 53.221C45.3801 53.2952 45.4714 53.3912 45.5851 53.5092C45.6988 53.6272 45.8228 53.7519 45.9572 53.8834C46.0779 54.0014 46.1985 54.116 46.3192 54.2273C46.4433 54.3419 46.5467 54.4364 46.6294 54.5106ZM48.7964 56.4887C49.1238 56.809 49.3351 57.1606 49.4304 57.5437C49.5291 57.9301 49.5049 58.3244 49.3579 58.7266C49.2177 59.1288 48.9478 59.522 48.5482 59.9064C48.159 60.2806 47.7478 60.539 47.3146 60.6815C46.8849 60.8274 46.4643 60.8575 46.0528 60.7718C45.6413 60.6861 45.2753 60.4865 44.9548 60.173C44.6274 59.8527 44.4144 59.4994 44.3156 59.113C44.2204 58.7299 44.2446 58.3356 44.3882 57.9301C44.5352 57.5279 44.8068 57.1363 45.203 56.7554C45.5922 56.3811 46.0034 56.1227 46.4366 55.9802C46.8698 55.8377 47.2904 55.8076 47.6984 55.8899C48.1099 55.9756 48.4758 56.1752 48.7964 56.4887ZM48.6819 56.5587C48.4578 56.3396 48.1849 56.2243 47.8631 56.2128C47.5413 56.2014 47.1966 56.2822 46.8291 56.4552C46.4649 56.6315 46.1022 56.8935 45.7408 57.241C45.3724 57.5952 45.101 57.9532 44.9264 58.315C44.7587 58.6768 44.6864 59.0138 44.7093 59.3261C44.7391 59.6384 44.8591 59.8974 45.0693 60.103C45.2934 60.3221 45.5663 60.4374 45.8881 60.4489C46.2099 60.4603 46.5528 60.3779 46.9169 60.2015C47.288 60.0252 47.6525 59.7649 48.0104 59.4207C48.3822 59.0631 48.652 58.7034 48.8196 58.3416C48.9907 57.9832 49.0631 57.6495 49.0367 57.3406C49.0138 57.0284 48.8955 56.7677 48.6819 56.5587ZM54.0604 61.7796L53.9562 61.8799C53.8355 61.7686 53.7286 61.6977 53.6353 61.6671C53.5454 61.6398 53.4554 61.6495 53.3652 61.6961C53.275 61.7427 53.1656 61.8278 53.0371 61.9515L49.9252 64.9441C49.9046 64.9239 49.8839 64.9036 49.8632 64.8834C49.846 64.8666 49.827 64.848 49.8063 64.8278L51.018 59.4506L48.2658 62.0973C48.1407 62.2176 48.052 62.323 47.9997 62.4134C47.9544 62.5038 47.9488 62.5961 47.983 62.6903C48.0241 62.7844 48.1084 62.9006 48.2359 63.0387L48.1316 63.139C48.0765 63.0716 47.999 62.9891 47.8991 62.8913C47.8026 62.7902 47.7096 62.6958 47.62 62.6082C47.5338 62.5239 47.4442 62.4396 47.3511 62.3553C47.2649 62.271 47.1891 62.2035 47.1235 62.1529L47.2278 62.0526C47.3519 62.1606 47.4572 62.2298 47.5436 62.2604C47.6369 62.291 47.7286 62.283 47.8188 62.2364C47.9125 62.1865 48.0218 62.1013 48.1469 61.981L50.6802 59.5448C50.8087 59.4212 50.8922 59.3209 50.9306 59.2438C50.9725 59.1634 50.9728 59.0829 50.9317 59.0021C50.8974 58.9214 50.8234 58.8221 50.7097 58.7041L50.814 58.6039C50.8691 58.6645 50.938 58.7387 51.0206 58.8263C51.1068 58.9173 51.1929 59.0049 51.2791 59.0892C51.3549 59.1634 51.429 59.2325 51.5014 59.2966C51.5738 59.3607 51.6393 59.418 51.6979 59.4686L50.6872 63.9806L52.9182 61.8352C53.0467 61.7115 53.1337 61.6045 53.1791 61.5141C53.2279 61.427 53.2335 61.3347 53.1958 61.2372C53.1616 61.1431 53.0791 61.0286 52.9481 60.8938L53.0524 60.7935C53.1109 60.8576 53.1885 60.9401 53.2849 61.0412C53.3848 61.1457 53.4779 61.2401 53.564 61.3244C53.6536 61.412 53.7433 61.4963 53.8329 61.5773C53.926 61.6616 54.0018 61.729 54.0604 61.7796Z" fill="#4036ED" fill-opacity="0.7"/>
</g>
<defs>
<filter id="filter0_d_146_373" x="0" y="0" width="99.5311" height="109.531" filterUnits="userSpaceOnUse" color-interpolation-filters="sRGB">
<feFlood flood-opacity="0" result="BackgroundImageFix"/>
<feColorMatrix in="SourceAlpha" type="matrix" values="0 0 0 0 0 0 0 0 0 0 0 0 0 0 0 0 0 0 127 0" result="hardAlpha"/>
<feOffset dx="1.80791" dy="1.80791"/>
<feGaussianBlur stdDeviation="0.361583"/>
<feComposite in2="hardAlpha" operator="out"/>
<feColorMatrix type="matrix" values="0 0 0 0 0 0 0 0 0 0 0 0 0 0 0 0 0 0 0.25 0"/>
<feBlend mode="normal" in2="BackgroundImageFix" result="effect1_dropShadow_146_373"/>
<feBlend mode="normal" in="SourceGraphic" in2="effect1_dropShadow_146_373" result="shape"/>
</filter>
<filter id="filter1_d_146_373" x="33.6416" y="24.6227" width="41.2554" height="59.0199" filterUnits="userSpaceOnUse" color-interpolation-filters="sRGB">
<feFlood flood-opacity="0" result="BackgroundImageFix"/>
<feColorMatrix in="SourceAlpha" type="matrix" values="0 0 0 0 0 0 0 0 0 0 0 0 0 0 0 0 0 0 127 0" result="hardAlpha"/>
<feOffset dx="0.723166" dy="0.723166"/>
<feGaussianBlur stdDeviation="0.361583"/>
<feComposite in2="hardAlpha" operator="out"/>
<feColorMatrix type="matrix" values="0 0 0 0 0 0 0 0 0 0 0 0 0 0 0 0 0 0 0.25 0"/>
<feBlend mode="normal" in2="BackgroundImageFix" result="effect1_dropShadow_146_373"/>
<feBlend mode="normal" in="SourceGraphic" in2="effect1_dropShadow_146_373" result="shape"/>
</filter>
</defs>
</svg>
